# xmcd
#
# Track frame offsets:
#	150
#	10571
#	20886
#	32751
#	42956
#	54612
#	66533
#	77575
#	88772
#	98869
#	112084
#	122230
#	135729
#	146221
#	159018
#	173031
#
# Disc length: 2460 seconds
#
# Revision: 1
# Processed by: cddbd v1.5.2PL0 Copyright (c) Steve Scherf et al.
# Submitted via: audiograbber 1.83.01
#
DISCID=db099a10
DTITLE=Robert Johnson - Robert Johnson
DYEAR=2004
DGENRE=Blues
TTITLE0=Love in Vain
TTITLE1=Malted Milk 
TTITLE2=Last Fair Deal Gone Down
TTITLE3=Honeymoon Blues
TTITLE4=I'm a Steady Rollin' Man
TTITLE5=Cross Road Blues
TTITLE6=Stones in My Passway 
TTITLE7=Me and the Devil Blues
TTITLE8=Little Queen of Spades
TTITLE9=I Believe I'll Dust My Broom 
TTITLE10=Stop Breakin' Down Blues 
TTITLE11=Sweet Home Chicago 
TTITLE12=Milk Cow's Calf Blues 
TTITLE13=Kindhearted Woman Blues 
TTITLE14=Terraplane Blues
TTITLE15=Dead Shrimp Blues 
EXTD=This single-disc, 16-track collection of Robert Johnson's blues is yet ano
EXTD=ther in the countless dozens that have already been issued. It adds nothin
EXTD=g new -- simply because there is nothing new to add. The package is somewh
EXTD=at dodgy, and the sound isn't quite as pristine as the Sony remastered CDs
EXTD=
EXTT0=
EXTT1=
EXTT2=
EXTT3=
EXTT4=
EXTT5=
EXTT6=
EXTT7=
EXTT8=
EXTT9=
EXTT10=
EXTT11=
EXTT12=
EXTT13=
EXTT14=
EXTT15=
PLAYORDER=
